name E:\Dropbox\SEL\BOX\Experiment\240124_SUB1_PJH\c3d\XYZ\UpDown_TrcMot\15_10_trial2_U1_ExtLoadAPP3.mot
datacolumns 37
datarows 7
range 2.245 2.251
endheader

time	    ground_force1_vx	    ground_force1_vy	    ground_force1_vz	    ground_force1_px	    ground_force1_py	    ground_force1_pz	    ground_torque1_x	    ground_torque1_y	    ground_torque1_z	    ground_force2_vx	    ground_force2_vy	    ground_force2_vz	    ground_force2_px	    ground_force2_py	    ground_force2_pz	    ground_torque2_x	    ground_torque2_y	    ground_torque2_z	      hand_force3_vx	      hand_force3_vy	      hand_force3_vz	      hand_force3_px	      hand_force3_py	      hand_force3_pz	      hand_torque3_x	      hand_torque3_y	      hand_torque3_z	      hand_force4_vx	      hand_force4_vy	      hand_force4_vz	      hand_force4_px	      hand_force4_py	      hand_force4_pz	      hand_torque4_x	      hand_torque4_y	      hand_torque4_z	
2.245	         40.09854223	        403.02655401	        -23.55820490	          0.23138124	          0.00000000	          0.29760269	          0.00000000	         -5.14195199	          0.00000000	        -37.51887050	        389.50762259	        -13.62402416	          0.57368001	          0.00000000	          0.26685295	          0.00000000	          4.78104622	          0.00000000	          0.00000000	          0.00000000	          0.00000000	          0.14109296	          0.88137917	         -0.01020069	          0.00000000	          0.00000000	          0.00000000	          0.00000000	          0.00000000	          0.00000000	          0.65042347	          0.90965615	         -0.01309077	          0.00000000	          0.00000000	          0.00000000	
2.246	         40.15273132	        403.10974390	        -23.73826789	          0.23139138	          0.00000000	          0.29775183	          0.00000000	         -5.14719797	          0.00000000	        -37.50144077	        389.50474164	        -13.66028336	          0.57366859	          0.00000000	          0.26693459	          0.00000000	          4.78592489	          0.00000000	          0.00000000	          0.00000000	          0.00000000	          0.14112539	          0.88215558	         -0.01046850	          0.00000000	          0.00000000	          0.00000000	          0.00000000	          0.00000000	          0.00000000	          0.65043159	          0.91046884	         -0.01341430	          0.00000000	          0.00000000	          0.00000000	
2.247	         40.20661791	        403.20158414	        -23.91409332	          0.23140108	          0.00000000	          0.29789731	          0.00000000	         -5.15275250	          0.00000000	        -37.48584953	        389.50087809	        -13.69885657	          0.57365748	          0.00000000	          0.26701778	          0.00000000	          4.79070576	          0.00000000	          0.00000000	          0.00000000	          0.00000000	          0.14115813	          0.88293041	         -0.01073805	          0.00000000	          0.00000000	          0.00000000	          0.00000000	          0.00000000	          0.00000000	          0.65044048	          0.91127848	         -0.01373933	          0.00000000	          0.00000000	          0.00000000	
2.248	         40.26009741	        403.30246276	        -24.08556521	          0.23141036	          0.00000000	          0.29803909	          0.00000000	         -5.15862176	          0.00000000	        -37.47217361	        389.49596462	        -13.73966722	          0.57364671	          0.00000000	          0.26710239	          0.00000000	          4.79538533	          0.00000000	          0.00000000	          0.00000000	          0.00000000	          0.14119115	          0.88370367	         -0.01100934	          0.00000000	          0.00000000	          0.00000000	          0.00000000	          0.00000000	          0.00000000	          0.65045014	          0.91208508	         -0.01406585	          0.00000000	          0.00000000	          0.00000000	
2.249	         40.31306788	        403.41274031	        -24.25257663	          0.23141925	          0.00000000	          0.29817716	          0.00000000	         -5.16481141	          0.00000000	        -37.46048577	        389.48994680	        -13.78263844	          0.57363630	          0.00000000	          0.26718833	          0.00000000	          4.79996052	          0.00000000	          0.00000000	          0.00000000	          0.00000000	          0.14122442	          0.88447534	         -0.01128238	          0.00000000	          0.00000000	          0.00000000	          0.00000000	          0.00000000	          0.00000000	          0.65046054	          0.91288865	         -0.01439384	          0.00000000	          0.00000000	          0.00000000	
2.25	         40.36543030	        403.53274830	        -24.41503011	          0.23142776	          0.00000000	          0.29831150	          0.00000000	         -5.17132652	          0.00000000	        -37.45085457	        389.48278342	        -13.82769331	          0.57362627	          0.00000000	          0.26727546	          0.00000000	          4.80442869	          0.00000000	          0.00000000	          0.00000000	          0.00000000	          0.14125793	          0.88524542	         -0.01155717	          0.00000000	          0.00000000	          0.00000000	          0.00000000	          0.00000000	          0.00000000	          0.65047169	          0.91368918	         -0.01472330	          0.00000000	          0.00000000	          0.00000000	
2.251	         40.41708881	        403.66278771	        -24.57283802	          0.23143590	          0.00000000	          0.29844209	          0.00000000	         -5.17817156	          0.00000000	        -37.44334412	        389.47444655	        -13.87475504	          0.57361664	          0.00000000	          0.26736369	          0.00000000	          4.80878760	          0.00000000	          0.00000000	          0.00000000	          0.00000000	          0.14129164	          0.88601391	         -0.01183371	          0.00000000	          0.00000000	          0.00000000	          0.00000000	          0.00000000	          0.00000000	          0.65048357	          0.91448671	         -0.01505422	          0.00000000	          0.00000000	          0.00000000	
